<svg xmlns="http://www.w3.org/2000/svg" viewBox="0 0 100 100">
  <defs>
    <linearGradient id="heartGradient" x1="0%" y1="0%" x2="0%" y2="100%">
      <!-- Bright glossy red -->
      <stop offset="0%" stop-color="#FF5A5F"/>
      <stop offset="45%" stop-color="#FF2D2D"/>
      <stop offset="100%" stop-color="#D60000"/>
    </linearGradient>
  </defs>

  <path
    d="M50 87
       C50 87 10 58 10 30
       C10 12 24 3 39 3
       C46 3 50 10 50 18
       C50 10 54 3 61 3
       C76 3 90 12 90 30
       C90 58 50 87 50 87
       Z"
    fill="url(#heartGradient)"
  />

  <!-- Gloss highlight -->
  <path
    d="M30 22
       C26 26 24 32 25 38
       C25 39 26.5 39 27 38
       C27 32 29 27 33 23
       C34 22 31 21 30 22
       Z"
    fill="#FFFFFF"
    opacity="0.6"
  />
</svg>